Coordinates
version=1
nRows=19
nColumns=33
inDegrees=yes

Units are S.I. units (second, meters, Newtons, ...)
Angles are in degrees.

endheader
time	ground_thorax_rot_x	ground_thorax_rot_y	ground_thorax_rot_z	ground_thorax_tx	ground_thorax_ty	ground_thorax_tz	clav_prot_r	clav_elev_r	scapula_abduction_r	scapula_elevation_r	scapula_upward_rot_r	scapula_winging_r	shoulder_elv_r	plane_of_elev_r	axial_rot_r	elbow_flexion_r	pro_sup_r	wrist_flex_r	wrist_dev_r	clav_prot_l	clav_elev_l	scapula_abduction_l	scapula_elevation_l	scapula_upward_rot_l	scapula_winging_l	shoulder_elv_l	plane_of_elev_l	axial_rot_l	elbow_flexion_l	pro_sup_l	wrist_flex_l	wrist_dev_l
      1.69000000	     -4.41166301	      2.88470747	     12.28601676	     -0.10630713	      1.02549039	      0.00785901	     15.17302152	    -14.26667252	     34.98156477	    -12.44720661	     16.19906629	     -8.65026040	     -5.10115410	    -56.13611708	    120.09679035	    -46.07547634	   -162.12809437	      9.60874680	     -1.42979138	     22.77428580	    -10.74542066	    -33.75252432	     -7.24644121	    -26.91421640	     10.16449937	     60.67351893	     -0.88034349	     15.14632501	     22.86969760	     20.78816726	     13.80356142	    -10.58480913
      1.70000000	     -4.35389461	      2.97664828	     12.41078284	     -0.10679503	      1.02525235	      0.00807480	     15.02472851	    -14.24305838	     34.37817258	    -12.24959681	     15.60936343	     -8.44577832	     -5.50453850	    -56.38576595	    119.86936929	    -47.11316150	   -162.92421668	      9.87075266	     -1.48663344	     22.55532441	    -10.63935014	    -33.39940620	     -7.51471642	    -27.26726448	      9.95338729	     60.68846662	     -1.20770840	     15.45062772	     24.20596882	     20.70290440	     13.80099534	    -10.92365071
      1.71000000	     -4.65726801	      3.21668200	     12.44789553	     -0.10727978	      1.02630833	      0.00798274	     14.69398866	    -15.55557411	     33.12359882	    -13.08524611	     14.53357667	     -7.14156753	     -6.00592038	    -57.19720863	    119.25136640	    -48.36463071	   -167.95268293	     10.20059569	     -1.74002194	     22.24343829	    -10.76999982	    -32.86908686	     -7.64023835	    -27.74097103	      9.57921884	     61.50534062	     -1.84221297	     14.94235847	     25.60710623	     20.99677695	     14.56990439	    -11.57253138
      1.72000000	     -4.52901216	      3.26998908	     12.50541293	     -0.10763199	      1.02596553	      0.00820916	     14.45718190	    -15.26347721	     32.52671946	    -12.71284906	     14.15173587	     -7.09431192	     -6.39656414	    -57.42589638	    119.32245896	    -49.38639387	   -168.27773523	     10.49176977	     -1.81027926	     22.01412713	    -10.47551321	    -32.52049514	     -8.01878504	    -27.97876546	      9.41667580	     61.23054556	     -1.99582957	     15.60634732	     26.88700791	     20.80340553	     14.51232889	    -11.81168194
      1.73000000	     -4.43743499	      3.32227306	     12.61032296	     -0.10813072	      1.02568072	      0.00843187	     14.29698873	    -15.07983933	     31.97256490	    -12.39408806	     13.64969189	     -7.00723743	     -6.82082659	    -57.71585163	    119.28171247	    -50.47863121	   -168.73191765	     10.79633939	     -1.89916790	     21.80296924	    -10.23178888	    -32.19842395	     -8.39715150	    -28.31065766	      9.24970673	     61.08849141	     -2.30145082	     15.92966452	     28.31960784	     20.62092143	     14.54473566	    -12.10676442
      1.74000000	     -4.36353261	      3.35799006	     12.74114047	     -0.10864480	      1.02549575	      0.00867075	     14.15690235	    -14.97650273	     31.40642644	    -12.12193737	     13.07955403	     -6.86718275	     -7.30351115	    -58.06836052	    119.17047322	    -51.66478145	   -169.31138683	     11.12799977	     -2.00929611	     21.58466033	    -10.02116708	    -31.86335006	     -8.77172955	    -28.69341891	      9.06322476	     61.02508830	     -2.72615655	     16.09863024	     29.84111072	     20.40620270	     14.66548448	    -12.41298775
      1.75000000	     -4.56008092	      3.50754830	     12.79557067	     -0.10909899	      1.02642488	      0.00869626	     13.93881892	    -15.97766335	     30.38961719	    -12.68324357	     12.04258679	     -5.86483771	     -7.92922509	    -58.85484848	    118.48976372	    -53.02764370	   -172.69801386	     11.70664472	     -2.65357597	     21.24512615	    -10.09150762	    -31.29765047	     -8.87682039	    -29.00747044	      8.69673306	     61.60000510	     -3.73216081	     15.37651347	     31.60006766	     19.77869368	     15.89128301	    -12.53589658
      1.76000000	     -4.35353002	      3.54266315	     12.71937173	     -0.10941280	      1.02620791	      0.00885206	     13.70920012	    -15.65867465	     29.85970488	    -12.30624786	     11.74463818	     -5.85425405	     -8.28713172	    -59.22244394	    118.51738867	    -54.23727188	   -172.88204330	     12.03949577	     -2.68145455	     21.03008226	     -9.77370329	    -30.97942390	     -9.31852959	    -29.33191054	      8.54222030	     61.34979592	     -3.89549940	     15.76439709	     33.09114088	     19.53082758	     15.85685151	    -12.78560571
      1.77000000	     -4.24574937	      3.54578527	     12.80727823	     -0.10984253	      1.02589085	      0.00906672	     13.54095811	    -15.40074150	     29.32854278	    -11.92641552	     11.28575819	     -5.81747910	     -8.81879658	    -59.65828191	    118.57289340	    -55.56291353	   -173.11050781	     12.42686384	     -2.73846089	     20.82552957	     -9.45493676	    -30.68247393	     -9.80899634	    -29.75746935	      8.38341951	     61.22528356	     -4.31492817	     15.87171069	     34.73922650	     19.26031413	     15.89121040	    -13.05836420
      1.78000000	     -4.39279582	      3.61262061	     12.93756431	     -0.11003467	      1.02678083	      0.00921378	     13.12743268	    -16.26823338	     28.09859366	    -12.41756185	     10.38243867	     -4.79145857	     -9.68847809	    -60.61905178	    118.07139121	    -56.97709706	   -175.74272898	     13.47554082	     -3.62240429	     20.40092705	     -9.48370408	    -29.98038614	     -9.94177849	    -30.04433679	      7.95322378	     61.69511115	     -5.57032389	     15.05688440	     36.69355793	     17.90412732	     16.79934102	    -12.49204237
      1.79000000	     -4.31309478	      3.60667663	     13.01231976	     -0.11052463	      1.02639615	      0.00937417	     12.98409752	    -15.95013739	     27.60938634	    -11.97323540	      9.91570264	     -4.81422261	    -10.20158491	    -61.03006277	    118.18808628	    -58.33797475	   -175.88688763	     13.88280263	     -3.65642906	     20.23366054	     -9.09096247	    -29.75546532	    -10.50710922	    -30.48891156	      7.83858576	     61.60518786	     -6.03768193	     14.95141765	     38.37814060	     17.62460509	     16.76241384	    -12.74792737
      1.80000000	     -4.17005409	      3.60506498	     13.00588168	     -0.11090850	      1.02611667	      0.00958519	     12.84712847	    -15.67865998	     27.11225442	    -11.55992410	      9.41953048	     -4.80084690	    -10.65995383	    -61.45049039	    118.14231356	    -59.77741884	   -176.02237698	     14.34730091	     -3.75893676	     20.05864262	     -8.76638513	    -29.51528927	    -11.02060141	    -30.95027328	      7.69854911	     61.56982350	     -6.55685189	     14.79559950	     40.17900895	     17.32832084	     16.73610005	    -12.99957090
      1.81000000	     -4.08644106	      3.60548965	     13.23319773	     -0.11135482	      1.02590811	      0.00981309	     12.71406624	    -15.51411375	     26.51565882	    -11.17763335	      8.74385068	     -4.68696128	    -11.30295063	    -62.02522430	    118.05171318	    -61.18724285	   -176.22707004	     14.91983624	     -3.96786794	     19.83868674	     -8.51635179	    -29.20237393	    -11.51097467	    -31.49463066	      7.49160250	     61.58848013	     -7.34833825	     14.53685912	     42.10227800	     16.95883802	     16.71255204	    -13.18314784
      1.82000000	     -4.11540543	      3.65940978	     13.24411146	     -0.11164269	      1.02694257	      0.00993509	     12.49673835	    -16.25290851	     25.59139292	    -11.51197805	      7.77775155	     -3.88989493	    -12.09181323	    -62.90600091	    117.13379201	    -62.57243328	   -177.26892959	     16.33441815	     -5.02636739	     19.46377178	     -8.73933128	    -28.58246514	    -11.50351507	    -31.84942854	      7.08218143	     62.19802172	     -8.84293387	     13.52443518	     44.25917185	     15.94096551	     16.65422106	    -12.59972120
      1.83000000	     -3.97420548	      3.59582416	     13.26865558	     -0.11182013	      1.02669260	      0.01013332	     12.23113005	    -15.91624830	     24.98154329	    -11.09014337	      7.43201688	     -3.85245745	    -12.72526614	    -63.52159003	    117.25377909	    -63.99353957	   -177.35001403	     16.82950173	     -5.08684954	     19.20082517	     -8.31930399	    -28.20407220	    -12.08954812	    -32.26908942	      6.87135000	     61.95447837	     -9.33558707	     13.80153102	     45.98453094	     15.60132419	     16.54481388	    -12.78278840
      1.84000000	     -3.95748978	      3.59738594	     13.27077125	     -0.11196720	      1.02725682	      0.01023125	     11.98907062	    -16.32266699	     24.15629919	    -11.19586400	      6.67693233	     -3.29111964	    -13.57196236	    -64.41178354	    116.60996436	    -65.33855039	   -177.99250234	     18.21529517	     -5.93629896	     18.80711542	     -8.24387487	    -27.56381537	    -12.29716154	    -32.51681495	      6.50011463	     62.15372314	    -10.55118537	     13.22964075	     48.02955747	     14.88759789	     16.26819416	    -12.45930999
      1.85000000	     -3.80859117	      3.53327982	     13.28793398	     -0.11212290	      1.02707945	      0.01047543	     11.74066855	    -15.96067729	     23.55845968	    -10.73449245	      6.29888361	     -3.27470304	    -14.18330055	    -64.98534062	    116.67941164	    -66.67459365	   -178.00313479	     18.68972840	     -5.99470830	     18.53997743	     -7.86204257	    -27.17646671	    -12.85451178	    -32.94183440	      6.27264809	     61.88966559	    -11.09807681	     13.58268360	     49.72665192	     14.61808503	     16.14711859	    -12.69616332
      1.86000000	     -3.66699930	      3.48992097	     13.33927670	     -0.11233809	      1.02695088	      0.01072461	     11.55376127	    -15.68480299	     22.98840020	    -10.30098935	      5.79263084	     -3.22024181	    -14.78514728	    -65.60288832	    116.62429522	    -67.96793568	   -178.00516865	     19.26679091	     -6.16276337	     18.28348608	     -7.54518002	    -26.80656986	    -13.36771813	    -33.39523326	      6.04026596	     61.70895933	    -11.79252743	     13.72599315	     51.50776682	     14.38152498	     16.02701050	    -12.95692325
      1.87000000	     -3.60546956	      3.43374162	     13.33547618	     -0.11248460	      1.02785599	      0.01077247	     11.38754083	    -16.21331748	     22.25388334	    -10.48070045	      4.96189254	     -2.63259574	    -15.74925304	    -66.58580516	    115.66690760	    -69.08840277	   -178.22210801	     20.99740066	     -7.26897370	     17.83542387	     -7.60520009	    -26.05843257	    -13.42007787	    -33.56207563	      5.61352902	     61.88715504	    -13.26760101	     13.20300178	     53.46064320	     14.05766199	     15.61968680	    -13.02047071
